<?xml version="1.0" encoding="UTF-8" standalone="no"?>
<!DOCTYPE svg PUBLIC "-//W3C//DTD SVG 1.1//EN" "http://www.w3.org/Graphics/SVG/1.1/DTD/svg11.dtd">
<svg version="1.1" xmlns="http://www.w3.org/2000/svg" xmlns:xlink="http://www.w3.org/1999/xlink" preserveAspectRatio="xMidYMid meet" viewBox="0 0 640 640" width="640" height="640"><defs><path d="M0 156.64C0 243.15 70.13 313.28 156.64 313.28C243.15 313.28 313.28 243.15 313.28 156.64C313.28 70.13 243.15 0 156.64 0C70.13 0 0 70.13 0 156.64" id="b4Fje18Xvp"></path><path d="M218.58 160.58C218.58 160.58 216.48 197.48 222.89 210.95C222.89 210.95 212.26 218.68 206.36 210.95C206.36 210.8 206.36 209.6 206.36 209.45C206.36 209.45 196.46 227.05 179.46 219C162.48 210.95 179.46 164.56 179.46 164.56C180.86 162 187.83 149.2 200.38 126.17L218.58 160.58" id="a7WLGw3qg"></path><path d="M250.64 313.76C242.9 319.54 234.58 324.61 225.79 328.85C224.45 329.5 223.12 330.12 221.76 330.72C202.68 339.28 181.53 344.04 159.25 344.04C136.98 344.04 115.84 339.28 96.75 330.72C95.4 330.12 94.04 329.5 92.72 328.85C83.93 324.6 75.61 319.54 67.87 313.76C69.23 283.48 85.32 257.03 109.15 241.41C123.54 231.96 140.76 226.48 159.25 226.48C162.08 226.48 164.87 226.61 167.62 226.86C182.94 228.24 197.16 233.4 209.36 241.41C220.33 248.6 229.66 258.08 236.66 269.18C244.88 282.19 249.91 297.42 250.64 313.76" id="amGaUdPb"></path><path d="M209.36 241.41C207.97 251.97 203.31 261.52 196.42 268.98C187.18 278.98 173.96 285.25 159.25 285.25C135.71 285.25 115.92 269.15 110.3 247.34C109.8 245.41 109.41 243.42 109.15 241.41C123.54 231.96 140.75 226.48 159.25 226.48C162.08 226.48 164.87 226.6 167.62 226.86C168.1 226.9 168.58 226.95 169.05 227C169.35 227.03 169.65 227.06 169.94 227.1C170.27 227.13 170.59 227.18 170.91 227.22C171.11 227.24 171.32 227.27 171.52 227.3C171.81 227.33 172.11 227.38 172.41 227.42C172.64 227.44 172.87 227.48 173.11 227.51C173.31 227.54 173.51 227.57 173.71 227.61C174.05 227.66 174.37 227.72 174.71 227.77C176.17 228.02 177.62 228.3 179.04 228.62C179.14 228.64 179.9 228.81 180 228.83C180.18 228.88 180.37 228.92 180.55 228.97C180.89 229.05 181.24 229.13 181.57 229.22C181.63 229.23 181.68 229.24 181.72 229.25C182.14 229.36 182.57 229.47 182.99 229.59C183.45 229.7 183.9 229.83 184.34 229.96C184.85 230.1 185.35 230.25 185.85 230.4C186.24 230.52 186.63 230.64 187.02 230.77C187.27 230.85 187.53 230.93 187.77 231.01C188.18 231.14 188.59 231.27 188.99 231.41C189.49 231.58 189.97 231.75 190.46 231.93C190.5 231.95 190.53 231.96 190.56 231.97C191.07 232.15 191.57 232.34 192.07 232.53C192.44 232.68 192.82 232.82 193.2 232.98C194.18 233.37 195.15 233.78 196.11 234.2C196.23 234.25 197.24 234.71 197.36 234.77C197.74 234.94 198.12 235.11 198.5 235.29C198.85 235.46 199.19 235.62 199.53 235.79C199.85 235.94 200.16 236.1 200.47 236.26C200.67 236.36 200.88 236.46 201.07 236.57C201.9 236.99 202.71 237.43 203.51 237.87C203.8 238.03 204.1 238.2 204.38 238.36C204.57 238.47 204.75 238.57 204.92 238.67C204.97 238.69 205.2 238.83 205.6 239.06L206.29 239.48C206.56 239.65 206.71 239.73 206.74 239.75C207.17 240 207.59 240.26 208.01 240.53C208.47 240.82 208.91 241.11 209.36 241.41" id="dkR0p2BgR"></path><path d="M181.53 201.39C181.53 227.68 181.53 242.29 181.53 245.21C181.53 256.29 172.46 265.37 161.38 265.37C160.95 265.37 157.55 265.37 157.13 265.37C146.05 265.37 136.99 256.29 136.99 245.21C136.99 240.83 136.99 205.77 136.99 201.39C136.99 190.31 146.05 181.26 157.13 181.26C157.55 181.26 160.95 181.26 161.38 181.26C172.46 181.26 181.53 190.31 181.53 201.39" id="hMbXzlUgL"></path><path d="M181.53 201.39C181.53 215.31 181.53 223.04 181.53 224.58C174.9 228.26 167.88 230.4 160.75 230.4C152.34 230.4 144.32 228.06 136.99 223.98C136.99 221.72 136.99 203.65 136.99 201.39C136.99 190.31 146.05 181.26 157.13 181.26C157.55 181.26 160.95 181.26 161.38 181.26C172.46 181.26 181.53 190.31 181.53 201.39" id="bgEOY5s7o"></path><path d="M213.56 184.5C213.56 184.5 223.99 180.95 230.66 169.32C237.91 156.69 233.36 148.82 231.92 147.12C227.99 142.46 221.95 145.45 220.95 147.12C219.96 148.78 205.5 175.01 213.56 184.5" id="aJ4FaCqGh"></path><path d="M223.8 151.25C223.8 151.25 230.41 152.1 228.08 161.41C225.75 170.72 219.64 174.4 211.33 179.16C203.01 183.92 215.48 153.15 223.8 151.25" id="aA1RbqyzD"></path><path d="M107.66 184.5C107.66 184.5 97.23 180.95 90.56 169.32C83.32 156.69 87.86 148.82 89.31 147.12C93.23 142.46 99.28 145.45 100.28 147.12C101.28 148.78 115.72 175.01 107.66 184.5" id="a1hUjr6cdT"></path><path d="M97.43 151.25C97.43 151.25 90.81 152.1 93.14 161.41C95.47 170.72 101.58 174.4 109.89 179.16C118.21 183.92 105.74 153.15 97.43 151.25" id="c3IjKAq0d"></path><path d="M223.8 145.11C223.8 106.88 195.57 75.88 160.75 75.88C125.94 75.88 97.72 106.88 97.72 145.11C97.72 183.34 125.94 223.31 160.75 223.31C193.46 223.31 223.8 183.02 223.8 145.11" id="c18hK0vWvA"></path><path d="M166.43 117.19C166.43 117.19 178.28 155.34 222.89 151.56C222.89 151.56 230.68 140.3 228.04 115.82C225.07 88.22 200.63 65 160.75 73.31C160.75 73.31 157.11 92.93 166.43 117.19" id="cB6viEQci"></path><path d="M168.42 75.88C168.42 75.88 170.08 68.66 164.09 63.01C164.09 63.01 78.87 68.96 97.72 145.11C97.72 145.11 116.18 99.57 165.09 95.58C165.31 94.27 166.42 87.7 168.42 75.88" id="brC9rzdla"></path><path d="M134.62 91.75C134.62 91.75 134.29 92.07 133.74 92.69C129.61 97.35 112.96 118.85 129.52 146.15C129.52 146.15 145.89 111.35 165.16 104.23C184.43 97.13 156.34 85.49 156.34 85.49" id="f14FbsfqxX"></path></defs><g><g><g><use xlink:href="#b4Fje18Xvp" opacity="1" fill="#001c55" fill-opacity="1"></use><g><use xlink:href="#b4Fje18Xvp" opacity="1" fill-opacity="0" stroke="#000000" stroke-width="1" stroke-opacity="0"></use></g></g><g><use xlink:href="#a7WLGw3qg" opacity="1" fill="#351f16" fill-opacity="1"></use><g><use xlink:href="#a7WLGw3qg" opacity="1" fill-opacity="0" stroke="#000000" stroke-width="1" stroke-opacity="0"></use></g></g><g><use xlink:href="#amGaUdPb" opacity="1" fill="#8b99ae" fill-opacity="1"></use><g><use xlink:href="#amGaUdPb" opacity="1" fill-opacity="0" stroke="#000000" stroke-width="1" stroke-opacity="0"></use></g></g><g><use xlink:href="#dkR0p2BgR" opacity="1" fill="#fbd5c0" fill-opacity="1"></use><g><use xlink:href="#dkR0p2BgR" opacity="1" fill-opacity="0" stroke="#000000" stroke-width="1" stroke-opacity="0"></use></g></g><g><use xlink:href="#hMbXzlUgL" opacity="1" fill="#fbd5c0" fill-opacity="1"></use><g><use xlink:href="#hMbXzlUgL" opacity="1" fill-opacity="0" stroke="#000000" stroke-width="1" stroke-opacity="0"></use></g></g><g><use xlink:href="#bgEOY5s7o" opacity="1" fill="#f8a29e" fill-opacity="1"></use><g><use xlink:href="#bgEOY5s7o" opacity="1" fill-opacity="0" stroke="#000000" stroke-width="1" stroke-opacity="0"></use></g></g><g><use xlink:href="#aJ4FaCqGh" opacity="1" fill="#fbd5c0" fill-opacity="1"></use><g><use xlink:href="#aJ4FaCqGh" opacity="1" fill-opacity="0" stroke="#000000" stroke-width="1" stroke-opacity="0"></use></g></g><g><use xlink:href="#aA1RbqyzD" opacity="1" fill="#f8a29e" fill-opacity="1"></use><g><use xlink:href="#aA1RbqyzD" opacity="1" fill-opacity="0" stroke="#000000" stroke-width="1" stroke-opacity="0"></use></g></g><g><use xlink:href="#a1hUjr6cdT" opacity="1" fill="#fbd5c0" fill-opacity="1"></use><g><use xlink:href="#a1hUjr6cdT" opacity="1" fill-opacity="0" stroke="#000000" stroke-width="1" stroke-opacity="0"></use></g></g><g><use xlink:href="#c3IjKAq0d" opacity="1" fill="#f8a29e" fill-opacity="1"></use><g><use xlink:href="#c3IjKAq0d" opacity="1" fill-opacity="0" stroke="#000000" stroke-width="1" stroke-opacity="0"></use></g></g><g><use xlink:href="#c18hK0vWvA" opacity="1" fill="#fbd5c0" fill-opacity="1"></use><g><use xlink:href="#c18hK0vWvA" opacity="1" fill-opacity="0" stroke="#000000" stroke-width="1" stroke-opacity="0"></use></g></g><g><use xlink:href="#cB6viEQci" opacity="1" fill="#351f16" fill-opacity="1"></use><g><use xlink:href="#cB6viEQci" opacity="1" fill-opacity="0" stroke="#000000" stroke-width="1" stroke-opacity="0"></use></g></g><g><use xlink:href="#brC9rzdla" opacity="1" fill="#351f16" fill-opacity="1"></use><g><use xlink:href="#brC9rzdla" opacity="1" fill-opacity="0" stroke="#000000" stroke-width="1" stroke-opacity="0"></use></g></g><g><use xlink:href="#f14FbsfqxX" opacity="1" fill="#351f16" fill-opacity="1"></use><g><use xlink:href="#f14FbsfqxX" opacity="1" fill-opacity="0" stroke="#000000" stroke-width="1" stroke-opacity="0"></use></g></g></g></g></svg>