<?xml version="1.0" encoding="UTF-8"?><svg xmlns="http://www.w3.org/2000/svg" xmlns:xlink="http://www.w3.org/1999/xlink" height="207.9" preserveAspectRatio="xMidYMid meet" version="1.0" viewBox="82.0 108.6 261.1 207.9" width="261.1" zoomAndPan="magnify"><g fill="none" stroke="#5d9ad0" stroke-linecap="round" stroke-linejoin="round" stroke-miterlimit="10" stroke-width="6"><path d="M139.8 145.3L120 145.3"/><path d="M103.1,145.3c-10,0-18,8.1-18,18v132.2c0,10,8.1,18,18,18h219c10,0,18-8.1,18-18V163.3c0-10-8.1-18-18-18 H170.3"/><path d="M281.8 304L311.2 304"/><path d="M259.2 304L270.8 304"/></g><path d="M249.4,145.3v-26.9c0-3.7-3-6.8-6.8-6.8h-60c-3.7,0-6.8,3-6.8,6.8v26.9" fill="none" stroke="#5d9ad0" stroke-linecap="round" stroke-linejoin="round" stroke-miterlimit="10" stroke-width="6"/><path d="M238.1,145.3v-16.7c0-2.6-2.1-4.7-4.7-4.7h-41.6c-2.6,0-4.7,2.1-4.7,4.7v16.7" fill="none" stroke="#5d9ad0" stroke-linecap="round" stroke-linejoin="round" stroke-miterlimit="10" stroke-width="6"/><path d="M85,211.2c0,10,8.1,18,18,18h219c10,0,18-8.1,18-18" fill="none" stroke="#5d9ad0" stroke-linecap="round" stroke-linejoin="round" stroke-miterlimit="10" stroke-width="6"/><path d="M229.4,241.1h-30.8c-6.6,0-11.9-5.3-11.9-11.9v0c0-6.6,5.3-11.9,11.9-11.9h30.8c6.6,0,11.9,5.3,11.9,11.9v0 C241.3,235.8,236,241.1,229.4,241.1z" fill="none" stroke="#5d9ad0" stroke-linecap="round" stroke-linejoin="round" stroke-miterlimit="10" stroke-width="6"/></svg>