<?xml version="1.0" encoding="UTF-8"?><svg xmlns="http://www.w3.org/2000/svg" xmlns:xlink="http://www.w3.org/1999/xlink" height="192.3" preserveAspectRatio="xMidYMid meet" version="1.0" viewBox="105.7 119.1 231.9 192.3" width="231.9" zoomAndPan="magnify"><g id="change1_1"><path d="M113.294,142.174c0,0-7.568,141.48-2.084,152.448c5.484,10.968,216.008,16.764,220.446,0 c4.499-16.993,5.985-103.094,2.084-152.448H113.294z" fill="#7BC5E2"/></g><g id="change2_1"><path d="M334.765,158.255H112.489c0,0-2.286-28.154,5.392-33.638s207.264-4.477,207.264-4.477 s9.62-0.073,8.795,16.451C333.282,149.784,334.765,158.255,334.765,158.255z" fill="#3F78A1"/></g><g id="change3_1"><circle cx="309.812" cy="139.161" fill="#6BB52D" r="7.951"/></g><g id="change4_1"><circle cx="292.264" cy="139.161" fill="#EB5885" r="7.951"/></g><g id="change5_1"><circle cx="273.071" cy="139.161" fill="#174866" r="7.952"/></g><g id="change5_2"><path d="M230.486,195.505c-0.34,1.538-2.077,3.317-2.794,4.735c-1.135,2.243-2.328,4.456-3.51,6.674 c-2.409,4.521-4.737,9.077-6.999,13.673c-4.736,9.625-8.195,19.728-13.474,29.101c-1.737,3.084,2.981,5.838,4.735,2.768 c-0.303,0.176-0.605,0.353-0.908,0.529c3.429-0.858,1.974-6.146-1.458-5.288c-1.203,0.301-1.773,0.946-2.37,1.992 c1.579,0.922,3.157,1.845,4.735,2.768c5.281-9.379,8.793-19.442,13.473-29.1c2.505-5.169,5.176-10.251,7.876-15.319 c1.844-3.461,5.134-7.247,5.979-11.073C236.536,193.518,231.25,192.053,230.486,195.505L230.486,195.505z" fill="#174866"/></g><g id="change5_3"><path d="M192.915,253.813c-0.629,0-1.261-0.215-1.777-0.655l-34.831-29.685l40.855-29.463 c1.229-0.885,2.943-0.607,3.828,0.62c0.886,1.229,0.608,2.942-0.62,3.828l-35.187,25.375l29.512,25.152 c1.153,0.982,1.291,2.713,0.309,3.865C194.461,253.487,193.69,253.813,192.915,253.813z" fill="#174866"/></g><g id="change5_4"><path d="M248.852,253.813c-0.775,0-1.546-0.327-2.088-0.963c-0.982-1.152-0.844-2.883,0.309-3.865l29.512-25.152 l-35.187-25.375c-1.228-0.886-1.506-2.6-0.62-3.828c0.887-1.228,2.599-1.506,3.828-0.62l40.855,29.463l-34.832,29.685 C250.113,253.599,249.481,253.813,248.852,253.813z" fill="#174866"/></g><g id="change6_1"><path d="M317.763,257.933C305.869,306.9,111.21,294.622,111.21,294.622c5.484,10.968,216.008,16.764,220.446,0 c4.354-16.446,5.886-97.624,2.444-147.571l-0.271,0.062C333.83,147.113,329.657,208.966,317.763,257.933z" fill="#61B4CE"/></g></svg>