<?xml version="1.0" encoding="UTF-8"?><svg xmlns="http://www.w3.org/2000/svg" xmlns:xlink="http://www.w3.org/1999/xlink" height="185.7" preserveAspectRatio="xMidYMid meet" version="1.0" viewBox="108.8 119.8 203.0 185.7" width="203.0" zoomAndPan="magnify"><g id="change1_1"><path d="M139.389,157.551c0,0-11.873-8.926-8.999-19.18c2.869-10.251,13.971-8.967,13.971-8.967 s8.925,7.001,17.899,15.216C171.235,152.835,149.997,167.494,139.389,157.551z" fill="#DE5963"/></g><g id="change2_1"><path d="M297.101,293.428c2.188-1.081,4.397-2.118,6.614-3.139c1.292,1.879,2.527,3.705,3.628,5.369 c-6.378-9.651-17.326-24.675-17.326-24.675c-10.697-5.915-17.352,9.891-17.352,9.891s16.131,10.162,27.682,16.896 c-1.739-1.015-3.583-2.107-5.458-3.229C295.626,294.167,296.363,293.793,297.101,293.428z" fill="#FEE2BF"/></g><g id="change3_1"><path d="M311.777,303.192c-0.007-0.021-0.013-0.043-0.02-0.068c-0.013-0.039-0.027-0.08-0.042-0.125 c-0.009-0.025-0.017-0.048-0.027-0.075c-0.021-0.051-0.043-0.106-0.067-0.165c-0.011-0.02-0.017-0.043-0.026-0.067 c-0.038-0.083-0.077-0.171-0.122-0.263c-0.01-0.018-0.02-0.041-0.03-0.058c-0.035-0.074-0.074-0.156-0.115-0.238 c-0.021-0.039-0.043-0.08-0.063-0.12c-0.034-0.067-0.068-0.135-0.107-0.206c-0.023-0.047-0.052-0.098-0.078-0.146 c-0.037-0.068-0.075-0.137-0.114-0.208c-0.031-0.055-0.06-0.108-0.092-0.165c-0.039-0.071-0.083-0.143-0.125-0.218 c-0.032-0.057-0.065-0.115-0.1-0.176c-0.047-0.08-0.096-0.163-0.144-0.246c-0.036-0.057-0.067-0.114-0.103-0.172 c-0.08-0.134-0.161-0.273-0.248-0.413c-0.048-0.079-0.099-0.164-0.147-0.246c-0.042-0.07-0.085-0.137-0.128-0.208 c-0.059-0.093-0.116-0.188-0.175-0.281c-0.039-0.066-0.079-0.131-0.121-0.196c-0.062-0.098-0.124-0.199-0.188-0.3 c-0.038-0.062-0.077-0.124-0.117-0.187c-0.07-0.112-0.142-0.224-0.216-0.337c-0.027-0.046-0.056-0.092-0.084-0.137 c-0.497-0.781-1.045-1.624-1.632-2.51c-0.001-0.002-0.003-0.003-0.003-0.004c-1.101-1.665-2.336-3.49-3.628-5.369 c-2.217,1.021-4.427,2.058-6.614,3.139c-0.737,0.365-1.475,0.74-2.212,1.114c1.875,1.122,3.719,2.213,5.458,3.229 c0.001,0.001,0.003-0.001,0.003,0c0.232,0.134,0.459,0.269,0.687,0.4c0.033,0.019,0.064,0.039,0.097,0.056 c0.221,0.127,0.439,0.254,0.655,0.379c0.021,0.011,0.038,0.022,0.059,0.034c0.222,0.127,0.44,0.254,0.658,0.378 c0.02,0.012,0.042,0.024,0.063,0.037c1.103,0.631,2.143,1.218,3.102,1.748c0.052,0.027,0.106,0.058,0.157,0.085 c0.139,0.077,0.271,0.149,0.404,0.223c0.079,0.041,0.155,0.082,0.23,0.123c0.119,0.067,0.238,0.13,0.356,0.193 c0.08,0.044,0.161,0.088,0.24,0.129c0.111,0.061,0.222,0.119,0.329,0.176c0.083,0.044,0.165,0.088,0.247,0.131 c0.101,0.053,0.2,0.106,0.3,0.157c0.084,0.044,0.166,0.087,0.247,0.128c0.09,0.047,0.181,0.095,0.27,0.138 c0.084,0.045,0.167,0.086,0.25,0.126c0.081,0.042,0.164,0.084,0.242,0.123c0.086,0.042,0.165,0.082,0.248,0.122 c0.07,0.033,0.14,0.071,0.209,0.102c0.141,0.07,0.278,0.134,0.409,0.195c0.051,0.024,0.095,0.043,0.145,0.067 c0.082,0.037,0.167,0.073,0.243,0.11c0.053,0.021,0.097,0.04,0.145,0.063c0.071,0.029,0.141,0.059,0.206,0.085 c0.047,0.02,0.09,0.036,0.134,0.053c0.061,0.024,0.121,0.046,0.176,0.069c0.042,0.015,0.083,0.029,0.122,0.042 c0.051,0.019,0.101,0.036,0.149,0.049c0.034,0.014,0.069,0.023,0.101,0.033c0.045,0.014,0.086,0.024,0.125,0.034 c0.03,0.007,0.058,0.013,0.084,0.018c0.037,0.008,0.069,0.012,0.101,0.015c0.02,0.002,0.044,0.005,0.061,0.007 c0.033,0,0.057-0.004,0.081-0.007c0.011-0.001,0.026-0.002,0.035-0.004c0.031-0.009,0.055-0.022,0.071-0.044 c0.012-0.02,0.021-0.046,0.025-0.079c-0.001-0.01-0.002-0.024-0.001-0.035c0-0.026,0.001-0.052-0.004-0.081 c-0.002-0.018-0.005-0.039-0.01-0.055C311.794,303.26,311.787,303.229,311.777,303.192z" fill="#364352"/></g><g id="change4_1"><path d="M281.797,260.978c0,0-115.732-115.158-123.53-119.573c-7.8-4.414-10.512-0.573-10.512-0.573l-6.942,4.421 c0,0-0.91,11.024-1.424,12.298c-0.516,1.272,128.501,120.808,133.276,123.322c4.772,2.517,7.215,3.694,9.379,1.401 c2.166-2.292,7.973-11.292,7.973-11.292L281.797,260.978z" fill="#F5AB4C"/></g><path d="M198.82 187.773L277.474 264.81" fill="none" stroke="#CC7B3D" stroke-linecap="round" stroke-linejoin="round" stroke-miterlimit="10" stroke-width="5"/><path d="M155.712,170.923c0,0-3.279-9.272,0.127-11.777" fill="none" stroke="#FACC7D" stroke-linecap="round" stroke-linejoin="round" stroke-miterlimit="10" stroke-width="5"/><path d="M132.565,142.714c0,0-0.131-6.448,3.904-7.712" fill="none" stroke="#ED6E6F" stroke-linecap="round" stroke-linejoin="round" stroke-miterlimit="10" stroke-width="5"/><g id="change5_1"><path d="M152.08,170.137c0,0-3.8-9.174,2.334-15.35c6.134-6.176,12.631-5.847,12.631-5.847 s0.145-1.233-0.899-2.654c-1.043-1.421-1.913-1.35-1.913-1.35l-5.939-5.695c0,0,1.173-1.082-0.262-2.915 c-1.437-1.832-5.129,0.079-5.129,0.079s-8.991,2.915-15.721,13.992c-3.59,7.017,0.405,10.249,0.405,10.249l1.475-0.734 l9.774,7.993c0,0,0.947,2.579,1.71,3.116C151.306,171.558,152.08,170.137,152.08,170.137z" fill="#547591"/></g><path d="M142.699,152.246c0,0,5.469-9.099,13.034-12.083" fill="none" stroke="#47647C" stroke-linecap="round" stroke-linejoin="round" stroke-miterlimit="10" stroke-width="5"/><g><g id="change6_1"><path d="M187.504,198.406c0,0,95.304-78.634,106.943-76.771c10.035,9.295-7.682,19.303-9.7,22.649 c-2.018,3.347-93.196,107.504-107.931,103.678C162.083,244.137,152.141,226.809,187.504,198.406z" fill="#EC6665"/></g><g id="change7_1"><path d="M161.823,276.67c-4.739,2.705-9.75,4.509-14.528,5.08c-33.046,3.927-25.355,19.516-26.768,21.617 c-1.411,2.094-11.734-10.219-4.719-29.373c2.396-6.542,6.666-16.091,12.49-25.214c11.221-17.58,28.214-33.583,48.682-23.517 c6.056,6.155,8.233,13.042,7.722,19.836C183.759,257.679,173.612,269.948,161.823,276.67z" fill="#FDEBDE"/></g><g id="change8_1"><path d="M161.823,276.67c-4.739,2.705-9.75,4.509-14.528,5.08c-33.046,3.927-25.355,19.516-26.768,21.617 c-1.411,2.094-11.734-10.219-4.719-29.373c2.396-6.542,6.666-16.091,12.49-25.214c4.498,0.127,5.742,5.659,2.005,9.462 c-5.263,5.348-9.858,24.674-6.815,20.571c3.042-4.096,2.712-9.567,9.318-5.122c6.6,4.451,5.725-3.517,8.341-6.628 c2.614-3.105,13.902-4.347,8.436,4.412C145.622,277.816,155.45,275.14,161.823,276.67z" fill="#5C5CA4"/></g><path d="M116.294,280.613c0,0-1.193,7.037,0.061,12.493" fill="none" stroke="#7775A8" stroke-linecap="round" stroke-linejoin="round" stroke-miterlimit="10" stroke-width="5"/><path d="M120.148,269.128c0,0,4.907-13.365,7.61-15.376" fill="none" stroke="#7775A8" stroke-linecap="round" stroke-linejoin="round" stroke-miterlimit="10" stroke-width="5"/><path d="M217.845,180.964c0,0,24.786-22.748,29.35-25.87" fill="none" stroke="#C25755" stroke-linecap="round" stroke-linejoin="round" stroke-miterlimit="10" stroke-width="5"/><path d="M252.48,150.616c0,0,7.18-6.231,8.552-6.583" fill="none" stroke="#C25755" stroke-linecap="round" stroke-linejoin="round" stroke-miterlimit="10" stroke-width="5"/></g></svg>