<?xml version="1.0" encoding="UTF-8"?><svg xmlns="http://www.w3.org/2000/svg" xmlns:xlink="http://www.w3.org/1999/xlink" height="250.5" preserveAspectRatio="xMidYMid meet" version="1.1" viewBox="83.6 87.2 257.4 250.5" width="257.4" zoomAndPan="magnify">
 <g id="surface1">
  <g id="change1_1"><path d="m314.48 265.59h-172.67v-104.44c0-4.27 3.46-7.72 7.73-7.72h157.21c4.27 0 7.73 3.45 7.73 7.72v104.44" fill="#abe3f9"/></g>
  <g id="change2_1"><path d="m314.48 265.59v-1.36h-171.3v-103.08c0-1.76 0.71-3.34 1.86-4.5 1.16-1.15 2.73-1.86 4.5-1.86h157.21c1.77 0 3.34 0.71 4.5 1.86 1.15 1.16 1.86 2.74 1.86 4.5v104.44h1.37v-1.36 1.36h1.36v-104.44c0-5.02-4.07-9.08-9.09-9.08h-157.21c-5.02 0-9.09 4.06-9.09 9.08v104.44c0 0.36 0.15 0.71 0.4 0.96 0.26 0.26 0.6 0.4 0.96 0.4h172.67c0.36 0 0.7-0.14 0.96-0.4 0.25-0.25 0.4-0.6 0.4-0.96h-1.36" fill="#496592"/></g>
  <g id="change3_1"><path d="m156.7 253.02h142.89v-87.02h-142.89z" fill="#fff"/></g>
  <g id="change2_2"><path d="m299.59 253.02v-1.77h-141.12v-83.48h139.35v85.25h1.77v-1.77 1.77h1.77v-87.02c0-0.47-0.19-0.93-0.52-1.25-0.33-0.33-0.79-0.52-1.25-0.52h-142.89c-0.47 0-0.92 0.19-1.25 0.52-0.33 0.32-0.52 0.78-0.52 1.25v87.02c0 0.46 0.19 0.92 0.52 1.25s0.78 0.52 1.25 0.52h142.89c0.46 0 0.92-0.19 1.25-0.52s0.52-0.79 0.52-1.25h-1.77" fill="#496592"/></g>
  <g id="change1_2"><path d="m336.54 336.27h-216.69c-2.66 0-3.84-2.66-2.66-5.88l23.75-64.79c0.71-1.96 2.92-3.51 4.95-3.51h164.61c2.02 0 4.23 1.55 4.95 3.51l23.75 64.79c1.18 3.22 0 5.88-2.66 5.88" fill="#abe3f9"/></g>
  <g id="change2_3"><path d="m336.54 336.27v-1.36h-216.69c-0.65-0.02-0.98-0.2-1.26-0.51s-0.5-0.85-0.5-1.63c0-0.55 0.11-1.2 0.37-1.91l23.75-64.79c0.24-0.66 0.8-1.36 1.5-1.85 0.7-0.5 1.52-0.78 2.18-0.77h164.61c0.66-0.01 1.48 0.27 2.18 0.77 0.7 0.49 1.26 1.19 1.49 1.85l23.75 64.79c0.26 0.71 0.38 1.36 0.38 1.91 0 0.78-0.22 1.32-0.5 1.63s-0.62 0.49-1.26 0.51v2.72c1.31 0.01 2.53-0.52 3.32-1.45 0.8-0.92 1.16-2.13 1.16-3.41 0-0.91-0.18-1.87-0.54-2.85l-23.75-64.79c-0.48-1.29-1.39-2.36-2.48-3.13s-2.39-1.27-3.75-1.28h-164.61c-1.37 0.01-2.66 0.51-3.75 1.28s-2 1.84-2.48 3.13l-23.75 64.79c-0.36 0.98-0.54 1.94-0.54 2.85 0 1.28 0.36 2.49 1.15 3.41 0.79 0.93 2.02 1.46 3.33 1.45h216.69v-1.36" fill="#496592"/></g>
  <g id="change2_4"><path d="m117.05 330.81c-0.93 3.03 0.26 5.46 2.8 5.46h216.69c2.54 0 3.73-2.43 2.8-5.46h-222.29" fill="#496592"/></g>
  <g id="change2_5"><path d="m164.81 276.54h-12.97l2.46-7.72h12.56l-2.05 7.72" fill="#496592"/></g>
  <g id="change2_6"><path d="m184.59 276.54h-12.98l1.83-7.72h12.56l-1.41 7.72" fill="#496592"/></g>
  <g id="change2_7"><path d="m204.36 276.54h-12.97l1.18-7.72h12.56l-0.77 7.72" fill="#496592"/></g>
  <g id="change2_8"><path d="m224.14 276.54h-12.98l0.55-7.72h12.56l-0.13 7.72" fill="#496592"/></g>
  <g id="change2_9"><path d="m243.91 276.54h-12.97l-0.09-7.72h12.56l0.5 7.72" fill="#496592"/></g>
  <g id="change2_10"><path d="m263.69 276.54h-12.98l-0.73-7.72h12.56l1.15 7.72" fill="#496592"/></g>
  <g id="change2_11"><path d="m161.13 290.44h-13.73l2.75-8.62h13.27l-2.29 8.62" fill="#496592"/></g>
  <g id="change2_12"><path d="m182.06 290.44h-13.74l2.04-8.62h13.27l-1.57 8.62" fill="#496592"/></g>
  <g id="change2_13"><path d="m202.98 290.44h-13.73l1.32-8.62h13.27l-0.86 8.62" fill="#496592"/></g>
  <g id="change2_14"><path d="m223.91 290.44h-13.73l0.61-8.62h13.26l-0.14 8.62" fill="#496592"/></g>
  <g id="change2_15"><path d="m244.83 290.44h-13.73l-0.1-8.62h13.26l0.57 8.62" fill="#496592"/></g>
  <g id="change2_16"><path d="m265.75 290.44h-13.73l-0.81-8.62h13.26l1.28 8.62" fill="#496592"/></g>
  <g id="change2_17"><path d="m286.68 290.44h-13.73l-1.53-8.62h13.27l1.99 8.62" fill="#496592"/></g>
  <g id="change2_18"><path d="m307.61 290.44h-13.74l-2.24-8.62h13.27l2.71 8.62" fill="#496592"/></g>
  <g id="change2_19"><path d="m157 306.05h-14.58l3.09-9.7h14.06l-2.57 9.7" fill="#496592"/></g>
  <g id="change2_20"><path d="m179.21 306.05h-14.58l2.3-9.7h14.05l-1.77 9.7" fill="#496592"/></g>
  <g id="change2_21"><path d="m201.43 306.05h-14.58l1.49-9.7h14.05l-0.96 9.7" fill="#496592"/></g>
  <g id="change2_22"><path d="m223.64 306.05h-14.58l0.69-9.7h14.06l-0.17 9.7" fill="#496592"/></g>
  <g id="change2_23"><path d="m245.86 306.05h-14.58l-0.11-9.7h14.05l0.64 9.7" fill="#496592"/></g>
  <g id="change2_24"><path d="m268.07 306.05h-14.57l-0.92-9.7h14.05l1.44 9.7" fill="#496592"/></g>
  <g id="change2_25"><path d="m290.29 306.05h-14.58l-1.71-9.7h14.05l2.24 9.7" fill="#496592"/></g>
  <g id="change2_26"><path d="m312.51 306.05h-14.58l-2.52-9.7h14.05l3.05 9.7" fill="#496592"/></g>
  <g id="change2_27"><path d="m152.32 323.71h-15.54l3.51-10.98h14.94l-2.91 10.98" fill="#496592"/></g>
  <g id="change2_28"><path d="m247.02 323.71h-86.56l2.59-10.98h83.25l0.72 10.98" fill="#496592"/></g>
  <g id="change2_29"><path d="m270.7 323.71h-15.54l-1.04-10.98h14.95l1.63 10.98" fill="#496592"/></g>
  <g id="change2_30"><path d="m294.38 323.71h-15.54l-1.95-10.98h14.94l2.55 10.98" fill="#496592"/></g>
  <g id="change2_31"><path d="m318.05 323.71h-15.53l-2.86-10.98h14.94l3.45 10.98" fill="#496592"/></g>
  <g id="change2_32"><path d="m303.24 276.54h-32.75l-1.37-7.72h31.7l2.42 7.72" fill="#496592"/></g>
  <g id="change1_3"><path d="m247.25 154.2l-105.74 52.98-25.92-51.73 105.74-52.98 25.92 51.73" fill="#abe3f9"/></g>
  <g id="change2_33"><path d="m247.25 154.2l-0.79-1.58-104.16 52.19-24.34-48.58 102.58-51.39 25.13 50.15 1.58-0.79-0.79-1.58 0.79 1.58 1.58-0.79-25.92-51.73c-0.21-0.42-0.58-0.74-1.02-0.89s-0.94-0.11-1.35 0.1l-105.74 52.98c-0.87 0.43-1.23 1.49-0.79 2.37l25.92 51.73c0.21 0.42 0.58 0.74 1.02 0.89 0.44 0.14 0.93 0.11 1.35-0.1l105.74-52.98c0.42-0.21 0.74-0.58 0.89-1.02 0.14-0.44 0.11-0.94-0.1-1.35l-1.58 0.79" fill="#496592"/></g>
  <g id="change1_4"><path d="m98.539 169.86l0.762 48.3" fill="#abe3f9"/></g>
  <g id="change2_34"><path d="m96.773 169.89l0.762 48.3c0.016 0.98 0.82 1.76 1.797 1.74 0.968-0.02 1.758-0.82 1.738-1.79l-0.77-48.3c-0.01-0.98-0.816-1.76-1.788-1.74-0.977 0.01-1.754 0.81-1.739 1.79" fill="#496592"/></g>
  <g id="change3_2"><path d="m99.762 247.17l-14.223 0.23 6.856-16.27 6.855-16.27 7.37 16.04 7.36 16.05-14.218 0.22" fill="#fff"/></g>
  <g id="change2_35"><path d="m99.762 247.17l-0.032-1.81-11.433 0.18 5.773-13.71 5.25-12.46 5.64 12.29 6.21 13.52-11.44 0.18 0.032 1.81 0.027 1.82 14.221-0.22c0.61-0.01 1.18-0.33 1.51-0.85 0.32-0.52 0.37-1.17 0.11-1.73l-7.36-16.05-7.37-16.04c-0.3-0.65-0.962-1.07-1.681-1.06-0.715 0.01-1.367 0.45-1.645 1.11l-6.855 16.27-6.852 16.27c-0.238 0.57-0.176 1.22 0.168 1.72 0.344 0.52 0.922 0.82 1.535 0.8l14.219-0.22-0.027-1.82" fill="#496592"/></g>
  <g id="change3_3"><path d="m99.418 209.62c3.482-0.05 6.352 2.72 6.402 6.2 0.06 3.48-2.72 6.35-6.203 6.4-3.48 0.06-6.344-2.72-6.398-6.2-0.055-3.48 2.719-6.34 6.199-6.4" fill="#fff"/></g>
  <g id="change2_36"><path d="m99.418 209.62l0.031 1.82h0.071c2.44 0 4.44 1.96 4.48 4.41v0.08c0 2.44-1.96 4.44-4.41 4.48h-0.074c-2.442 0-4.446-1.96-4.481-4.42v-0.07c-0.004-2.44 1.961-4.44 4.41-4.48l-0.054-3.64c-4.442 0.08-7.993 3.69-7.993 8.12v0.14-0.01c0.071 4.44 3.692 7.99 8.118 7.99h0.129c4.445-0.07 7.995-3.69 7.995-8.11v-0.13c-0.07-4.45-3.69-8-8.12-8h-0.129l0.027 1.82" fill="#496592"/></g>
  <g id="change1_5"><path d="m158.78 108.96l83.77-19.991c1.27-0.305 2.09 1.293 1.11 2.152l-65.16 57.019c-0.16 0.14-0.36 0.24-0.56 0.28l-85.28 18.35c-1.273 0.28-2.062-1.34-1.058-2.18l66.668-55.37c0.14-0.12 0.32-0.21 0.51-0.26" fill="#abe3f9"/></g>
  <g id="change2_37"><path d="m158.78 108.96l0.41 1.72 83.77-19.992-0.1-0.422v0.429l0.1-0.007-0.1-0.422v0.429-0.554l-0.41 0.379c0.07 0.089 0.25 0.179 0.41 0.175v-0.554l-0.41 0.379 0.35-0.325h-0.48c0.01 0.145 0.05 0.235 0.13 0.325l0.35-0.325h-0.48 0.53l-0.35-0.406c-0.08 0.055-0.18 0.266-0.18 0.406h0.53l-0.35-0.406-65.16 57.021h-0.01l0.35 0.39-0.11-0.51-0.24 0.12 0.35 0.39-0.11-0.51-85.281 18.36 0.09 0.4v-0.41l-0.09 0.01 0.09 0.4v-0.41 0.55l0.41-0.38c-0.074-0.09-0.258-0.18-0.41-0.17v0.55l0.41-0.38-0.348 0.33h0.473c-0.004-0.15-0.043-0.23-0.125-0.33l-0.348 0.33h0.473-0.531l0.344 0.42c0.085-0.06 0.199-0.28 0.187-0.42h-0.531l0.344 0.42 0.003-0.01 66.67-55.37h-0.01l-0.32-0.4 0.11 0.5 0.21-0.1-0.32-0.4 0.11 0.5-0.4-1.72-0.41-1.71c-0.46 0.11-0.88 0.32-1.23 0.61l-66.667 55.37h0.004c-0.719 0.58-1.114 1.49-1.098 2.31 0.004 0.78 0.297 1.51 0.812 2.07 0.508 0.57 1.309 0.97 2.188 0.96 0.215 0 0.437-0.02 0.652-0.07l85.279-18.36c0.5-0.1 0.97-0.34 1.35-0.68v0.01l65.16-57.021c0.68-0.582 1.05-1.461 1.04-2.254 0-0.793-0.3-1.511-0.81-2.074-0.51-0.562-1.31-0.965-2.19-0.961-0.24 0-0.48 0.031-0.72 0.09l-83.77 20 0.41 1.71" fill="#496592"/></g>
  <g id="change4_1"><path d="m142.3 204.81l-21.22-42.35 57.23-12.32c0.5-0.1 0.97-0.34 1.35-0.68v0.01l0.27-0.24c7.46 2.04 15.13 3.01 22.81 3.01 12.85 0 25.72-2.73 37.65-7.79l4.49 8.96-102.58 51.4" fill="#7bd4f6"/></g>
  <g id="change5_1"><path d="m141.51 207.18l-22.21-44.33 1.78-0.39 21.22 42.35 102.58-51.4-4.49-8.96c0.54-0.24 1.08-0.47 1.62-0.71l5.24 10.46-105.74 52.98" fill="#3b6492"/></g>
  <g id="change4_2"><path d="m94.359 164.6l48.291-40.11c2.95 4.63 6.82 8.66 11.21 12.1 0.96 0.74 1.94 1.46 2.94 2.15 0.13 0.09 0.26 0.18 0.39 0.26 1.03 0.7 2.08 1.38 3.15 2.02 0.1 0.06 0.21 0.12 0.32 0.18 1.1 0.65 2.21 1.28 3.34 1.86l0.21 0.11c1.18 0.6 2.36 1.18 3.56 1.72 0.79 0.35 1.58 0.69 2.37 1.02l0.17 0.07c1.27 0.51 2.55 1 3.83 1.45l-79.781 17.17" fill="#7bd4f6"/></g>
  <g id="change5_2"><path d="m92.379 166.8c-1.102 0-1.703-1.44-0.777-2.21l50.128-41.63c0.3 0.51 0.61 1.02 0.92 1.53l-48.291 40.11 79.781-17.17c1.1 0.39 2.21 0.75 3.32 1.09 0.82 0.25 1.64 0.49 2.47 0.71l-0.27 0.24v-0.01c-0.38 0.34-0.85 0.58-1.35 0.68l-57.23 12.32-1.78 0.39-0.82-1.64-25.82 5.56c-0.098 0.03-0.191 0.03-0.281 0.03" fill="#3b6492"/></g>
 </g>
</svg>