<?xml version="1.0" encoding="UTF-8"?><svg xmlns="http://www.w3.org/2000/svg" xmlns:xlink="http://www.w3.org/1999/xlink" height="210.7" preserveAspectRatio="xMidYMid meet" version="1.1" viewBox="94.7 107.2 235.8 210.7" width="235.8" zoomAndPan="magnify">
 <g id="surface1">
  <g id="change1_1"><path d="m307.38 125.46c-12.77 0-23.12 10.35-23.12 23.13 0 12.77 10.35 23.12 23.12 23.12 12.78 0 23.13-10.35 23.13-23.12 0-12.78-10.35-23.13-23.13-23.13" fill="#51c7f4"/></g>
  <g id="change2_1"><path d="m307.38 138.14c-5.77 0-10.44 4.68-10.44 10.45s4.67 10.44 10.44 10.44 10.44-4.67 10.44-10.44-4.67-10.45-10.44-10.45" fill="#4c56af"/></g>
  <g id="change2_2"><path d="m282.45 201.32h-69.3v-6.93h62.36v-49.27h35.07v6.93h-28.13v49.27" fill="#4c56af"/></g>
  <g id="change1_2"><path d="m317.5 263.54c-9.03 9.03-23.67 9.03-32.7 0s-9.03-23.67 0-32.7 23.67-9.03 32.7 0 9.03 23.67 0 32.7" fill="#51c7f4"/></g>
  <g id="change2_3"><path d="m308.53 254.57c-4.07 4.08-10.68 4.08-14.76 0-4.08-4.07-4.08-10.69 0-14.77 4.08-4.07 10.69-4.07 14.77 0 4.08 4.08 4.08 10.7-0.01 14.77" fill="#4c56af"/></g>
  <g id="change2_4"><path d="m281.07 272.18l-60.02-60.01 4.91-4.91 55.11 55.11 19.89-19.89 4.91 4.9-24.8 24.8" fill="#4c56af"/></g>
  <g id="change2_5"><path d="m94.695 250.83v43.25c0 13.19 35.235 23.87 78.695 23.87 43.47 0 78.71-10.68 78.71-23.87v-43.25h-157.4" fill="#4c56af"/></g>
  <g id="change1_3"><path d="m252.1 250.83c0 13.19-35.24 23.87-78.71 23.87-43.46 0-78.695-10.68-78.695-23.87 0-13.18 35.235-23.87 78.695-23.87 43.47 0 78.71 10.69 78.71 23.87" fill="#51c7f4"/></g>
  <g id="change1_4"><path d="m226.53 279.58c0 1.3-1.05 2.35-2.34 2.35s-2.34-1.05-2.34-2.35c0-1.29 1.05-2.34 2.34-2.34s2.34 1.05 2.34 2.34" fill="#51c7f4"/></g>
  <g id="change1_5"><path d="m234.49 277.24c0 1.3-1.05 2.34-2.34 2.34s-2.34-1.04-2.34-2.34c0-1.29 1.05-2.34 2.34-2.34s2.34 1.05 2.34 2.34" fill="#51c7f4"/></g>
  <g id="change1_6"><path d="m242.45 274.08c0 1.3-1.05 2.34-2.34 2.34-1.3 0-2.34-1.04-2.34-2.34 0-1.29 1.04-2.34 2.34-2.34 1.29 0 2.34 1.05 2.34 2.34" fill="#51c7f4"/></g>
  <g id="change2_6"><path d="m94.695 190.98v43.25c0 13.18 35.235 23.87 78.695 23.87 43.47 0 78.71-10.69 78.71-23.87v-43.25h-157.4" fill="#4c56af"/></g>
  <g id="change1_7"><path d="m252.1 190.98c0 13.18-35.24 23.87-78.71 23.87-43.46 0-78.695-10.69-78.695-23.87 0-13.19 35.235-23.87 78.695-23.87 43.47 0 78.71 10.68 78.71 23.87" fill="#51c7f4"/></g>
  <g id="change1_8"><path d="m226.53 219.73c0 1.29-1.05 2.34-2.34 2.34s-2.34-1.05-2.34-2.34c0-1.3 1.05-2.34 2.34-2.34s2.34 1.04 2.34 2.34" fill="#51c7f4"/></g>
  <g id="change1_9"><path d="m234.49 217.39c0 1.29-1.05 2.34-2.34 2.34s-2.34-1.05-2.34-2.34c0-1.3 1.05-2.34 2.34-2.34s2.34 1.04 2.34 2.34" fill="#51c7f4"/></g>
  <g id="change1_10"><path d="m242.45 214.23c0 1.29-1.05 2.34-2.34 2.34-1.3 0-2.34-1.05-2.34-2.34 0-1.3 1.04-2.34 2.34-2.34 1.29 0 2.34 1.04 2.34 2.34" fill="#51c7f4"/></g>
  <g id="change2_7"><path d="m94.695 131.12v43.25c0 13.18 35.235 23.87 78.695 23.87 43.47 0 78.71-10.69 78.71-23.87v-43.25h-157.4" fill="#4c56af"/></g>
  <g id="change1_11"><path d="m252.1 131.12c0 13.18-35.24 23.87-78.71 23.87-43.46 0-78.695-10.69-78.695-23.87s35.235-23.87 78.695-23.87c43.47 0 78.71 10.69 78.71 23.87" fill="#51c7f4"/></g>
  <g id="change1_12"><path d="m226.53 159.87c0 1.29-1.05 2.34-2.34 2.34s-2.34-1.05-2.34-2.34 1.05-2.34 2.34-2.34 2.34 1.05 2.34 2.34" fill="#51c7f4"/></g>
  <g id="change1_13"><path d="m234.49 157.53c0 1.29-1.05 2.34-2.34 2.34s-2.34-1.05-2.34-2.34 1.05-2.34 2.34-2.34 2.34 1.05 2.34 2.34" fill="#51c7f4"/></g>
  <g id="change1_14"><path d="m242.45 154.37c0 1.29-1.05 2.34-2.34 2.34-1.3 0-2.34-1.05-2.34-2.34s1.04-2.34 2.34-2.34c1.29 0 2.34 1.05 2.34 2.34" fill="#51c7f4"/></g>
 </g>
</svg>